<svg xmlns="http://www.w3.org/2000/svg" xmlns:xlink="http://www.w3.org/1999/xlink" width="1082.629" height="532.394" viewBox="0 0 1082.629 532.394">
  <defs>
    <linearGradient id="linear-gradient" x1="0.5" y1="1" x2="0.5" y2="-0.001" gradientUnits="objectBoundingBox">
      <stop offset="0" stop-color="gray" stop-opacity="0.251"/>
      <stop offset="0.54" stop-color="gray" stop-opacity="0.122"/>
      <stop offset="1" stop-color="gray" stop-opacity="0.102"/>
    </linearGradient>
  </defs>
  <g id="undraw_programming_2svr" transform="translate(-0.011 -0.035)">
    <path id="Path_36843" data-name="Path 36843" d="M1079,593.921q-1.809,3.6-3.608,7.11-2.807,5.447-5.542,10.683c-.811,1.547-1.622,3.065-2.412,4.583-8.941,16.88-17.29,31.81-24.381,44.089-13.106,22.661-38.54,36.915-66.344,37.181l-157.672,1.585H817.38l-13.516.135L792.3,699.4l-35.454.355h-1.435l-18.049.183h-.551l-111.249,1.114-99.3.961-11.551.115-71.74.721h-.083l-46.527.461h-.5l-147.119,1.47-44.011.442A98.574,98.574,0,0,1,177,701.554a91.046,91.046,0,0,1-40.642-23.779,189.425,189.425,0,0,1-41.932-66.061q-2.007-5.274-3.743-10.683c-32.034-100.062,7.018-229.158,77.3-315.548q4.419-5.419,8.983-10.568l.073-.077c21.616-24.518,45.851-45,71.667-59.566,45.747-25.854,96.433-33.136,146.288-11.433,42.181,18.37,81.565,27.007,119.744,29.351,3.857.231,7.715.4,11.551.509,87.575,2.546,169.65-26.613,266.031-45.434,3.836-.749,7.683-1.489,11.562-2.19,68.756-12.643,145.03-19.311,235.734-5.294a210.2,210.2,0,0,1,27.823,6.149q6,1.787,11.562,3.843c43.294,16.275,66.906,46.347,76.939,84.027q1.425,5.246,2.464,10.674C1176.2,376.11,1124.1,504.677,1079,593.921Z" transform="translate(-79.34 -172.91)" fill="#ff4900" opacity="0.1"/>
    <g id="Group_34855" data-name="Group 34855" transform="translate(10.91 13.67)" opacity="0.1">
      <path id="Path_36844" data-name="Path 36844" d="M242.24,217V704.894l-42.33.44a91.717,91.717,0,0,1-26.67-3.657V276.357h.07C194.1,251.9,217.41,231.485,242.24,217Z" transform="translate(-90.25 -186.58)" fill="#ff4900"/>
      <path id="Path_36845" data-name="Path 36845" d="M1158.592,290.08H164.6q4.434-5.64,9.015-11V279h982.5Q1157.549,284.43,1158.592,290.08Z" transform="translate(-90.25 -186.58)" fill="#ff4900"/>
      <path id="Path_36846" data-name="Path 36846" d="M1040.82,191.51v427h-3.47q-2.7,5.67-5.33,11.12c-.78,1.61-1.56,3.19-2.32,4.77V187.47Q1035.47,189.33,1040.82,191.51Z" transform="translate(-48.898 -186.58)" fill="#ff4900"/>
      <path id="Path_36847" data-name="Path 36847" d="M776.21,186.58V699.089l-11.12.115V188.767C768.78,188.019,772.48,187.28,776.21,186.58Z" transform="translate(-62.78 -186.58)" fill="#ff4900"/>
      <path id="Path_36848" data-name="Path 36848" d="M509.22,236.126V701.989l-11.11.115V235.62C501.82,235.849,505.53,235.983,509.22,236.126Z" transform="translate(-73.648 -186.58)" fill="#ff4900"/>
      <path id="Path_36849" data-name="Path 36849" d="M1078.7,618.52q-2.818,5.67-5.563,11.12H94.007q-2.014-5.49-3.757-11.12Z" transform="translate(-90.25 -227.444)" fill="#ff4900"/>
    </g>
    <rect id="Rectangle_1032" data-name="Rectangle 1032" width="19" height="57.66" transform="translate(220.159 254.188)" fill="#3f3d56"/>
    <rect id="Rectangle_1033" data-name="Rectangle 1033" width="19" height="61" transform="translate(752.173 251.241)" fill="#3f3d56"/>
    <path id="Path_36850" data-name="Path 36850" d="M863.1,533.65v13l-151.92,1.4-1.62.03-57.74.53-1.38.02-17.55.15h-.52l-106.98.99L349.78,551.4h-.15l-44.65.42-.48.01-198.4,1.82v-15l46.65-28,93.6-.78,2-.01.66-.01,2-.03,44.94-.37,2.01-.01.64-.01,2-.01,14.41-.12.38-.01,35.55-.3h.29l277.4-2.34,6.79-.05h.68l5.18-.05,37.65-.31,2-.03,1.85-.02h.96l11.71-.09,2.32-.03,3.11-.02,9.75-.09,15.47-.13,2-.02,3.48-.02h.65l74.71-.64Z" transform="translate(0 -21.746)" fill="#65617d"/>
    <path id="Path_36851" data-name="Path 36851" d="M863.1,533.65v13l-151.92,1.4-1.62.03-57.74.53-1.38.02-17.55.15h-.52l-106.98.99L349.78,551.4h-.15l-44.65.42-.48.01-198.4,1.82v-15l46.65-28,93.6-.78,2-.01.66-.01,2-.03,44.94-.37,2.01-.01.64-.01,2-.01,14.41-.12.38-.01,35.55-.3h.29l277.4-2.34,6.79-.05h.68l5.18-.05,37.65-.31,2-.03,1.85-.02h.96l11.71-.09,2.32-.03,3.11-.02,9.75-.09,15.47-.13,2-.02,3.48-.02h.65l74.71-.64Z" transform="translate(0 -21.746)" opacity="0.2"/>
    <path id="Path_36852" data-name="Path 36852" d="M375.44,656.57v24.49a6.13,6.13,0,0,1-3.5,5.54,6,6,0,0,1-2.5.6l-34.9.74a6,6,0,0,1-2.7-.57,6.12,6.12,0,0,1-3.57-5.57V656.57Z" transform="translate(-68.986 -194.656)" fill="#3f3d56"/>
    <path id="Path_36853" data-name="Path 36853" d="M375.44,656.57v24.49a6.13,6.13,0,0,1-3.5,5.54,6,6,0,0,1-2.5.6l-34.9.74a6,6,0,0,1-2.7-.57,6.12,6.12,0,0,1-3.57-5.57V656.57Z" transform="translate(-68.986 -194.656)" opacity="0.1"/>
    <path id="Path_36854" data-name="Path 36854" d="M377.44,656.57v24.49a6.13,6.13,0,0,1-3.5,5.54,6,6,0,0,1-2.5.6l-34.9.74a6,6,0,0,1-2.7-.57,6.12,6.12,0,0,1-3.57-5.57V656.57Z" transform="translate(-68.902 -194.656)" fill="#3f3d56"/>
    <rect id="Rectangle_1034" data-name="Rectangle 1034" width="47.17" height="31.5" transform="translate(709.255 461.914)" fill="#3f3d56"/>
    <rect id="Rectangle_1035" data-name="Rectangle 1035" width="47.17" height="31.5" transform="translate(709.255 461.914)" opacity="0.1"/>
    <rect id="Rectangle_1036" data-name="Rectangle 1036" width="47.17" height="31.5" transform="translate(707.171 461.914)" fill="#3f3d56"/>
    <path id="Path_36855" data-name="Path 36855" d="M230.6,265.82v5.73l-19-.49v-5.24Z" transform="translate(8.559 -10.539)" opacity="0.1"/>
    <path id="Path_36856" data-name="Path 36856" d="M435,277.31l-22.83,164a4.3,4.3,0,0,1-4.37,3.71L225,440.28l-3.47-.09a4.3,4.3,0,0,1-4.16-4.87L243,263.64a4.3,4.3,0,0,1,4.54-3.63L431,272.43a4.29,4.29,0,0,1,4,4.88Z" transform="translate(-79.34 -178.039)" fill="#65617d"/>
    <path id="Path_36857" data-name="Path 36857" d="M175.93,99.16,156.6,250.49l168,5.33,20.66-146Z" transform="translate(7.595 -5.423)" fill="#ff4900"/>
    <rect id="Rectangle_1037" data-name="Rectangle 1037" width="204.67" height="173.33" rx="5.33" transform="translate(403.61 91.293)" fill="#65617d"/>
    <rect id="Rectangle_1038" data-name="Rectangle 1038" width="186" height="144.33" transform="translate(413.322 102.735)" fill="#ff4900"/>
    <path id="Path_36858" data-name="Path 36858" d="M741.93,262.82v3.79l-19,.39v-4.18Z" transform="translate(29.243 -10.391)" opacity="0.1"/>
    <path id="Path_36859" data-name="Path 36859" d="M907,432.53a3.08,3.08,0,0,1-3,3.28l-187.2,3.87a3.08,3.08,0,0,1-3.13-2.79L697.58,269.61a3.08,3.08,0,0,1,2.92-3.37L886.28,257l2-.1a3.07,3.07,0,0,1,3.22,2.8Z" transform="translate(-48.607 -177.826)" fill="#65617d"/>
    <path id="Path_36860" data-name="Path 36860" d="M628.93,103.16,798.6,94.82l14.33,152-168.33,4Z" transform="translate(30.337 -5.177)" fill="#ff4900"/>
    <path id="Path_36861" data-name="Path 36861" d="M907,432.53a3.08,3.08,0,0,1-3,3.28L886.28,257l2-.1a3.07,3.07,0,0,1,3.22,2.8Z" transform="translate(-46.643 -177.775)" opacity="0.1"/>
    <path id="Path_36862" data-name="Path 36862" d="M247.57,260,225,440.28l-3.47-.09a4.3,4.3,0,0,1-4.16-4.87L243,263.64A4.3,4.3,0,0,1,247.57,260Z" transform="translate(-79.34 -177.973)" opacity="0.1"/>
    <rect id="Rectangle_1039" data-name="Rectangle 1039" width="19" height="17.08" transform="translate(220.159 294.004)" opacity="0.1"/>
    <path id="Path_36863" data-name="Path 36863" d="M298.1,483.65v4.97l-47.17,1.26v-6.23Z" transform="translate(10.438 -21.746)" opacity="0.1"/>
    <path id="Path_36864" data-name="Path 36864" d="M460.69,485.27v168.2a4,4,0,0,1-3.85,3.95l-191.65,5.1h-.05a4,4,0,0,1-3.95-3.95V485.27a4,4,0,0,1,3.95-3.95h191.6a4,4,0,0,1,3.95,3.95Z" transform="translate(-70.407 -194.656)" fill="#65617d"/>
    <path id="Path_36865" data-name="Path 36865" d="M265.19,481.32v181.2h-.05a4,4,0,0,1-3.95-3.95V485.27a4,4,0,0,1,3.95-3.95Z" transform="translate(-79.34 -194.656)" opacity="0.1"/>
    <path id="Path_36866" data-name="Path 36866" d="M194.6,319.15H372.1V467.4l-177.5,4Z" transform="translate(9.316 -21.746)" fill="#d4dfec"/>
    <rect id="Rectangle_1040" data-name="Rectangle 1040" width="19" height="17.42" transform="translate(752.173 293.997)" opacity="0.1"/>
    <path id="Path_36867" data-name="Path 36867" d="M726.1,483.65v6.41l-47.17-1.26v-5.15Z" transform="translate(28.241 -21.746)" opacity="0.1"/>
    <path id="Path_36868" data-name="Path 36868" d="M867.69,485.27v173.3a4,4,0,0,1-4,3.95h0L672,657.42a4,4,0,0,1-3.85-3.95V485.27a4,4,0,0,1,3.95-3.95H863.7a4,4,0,0,1,3.99,3.95Z" transform="translate(-50.414 -194.656)" fill="#65617d"/>
    <path id="Path_36869" data-name="Path 36869" d="M867.69,485.27v173.3a4,4,0,0,1-4,3.95h0V481.32h0a4,4,0,0,1,4,3.95Z" transform="translate(-48.071 -194.656)" opacity="0.1"/>
    <path id="Path_36870" data-name="Path 36870" d="M775.6,319.15H598.1V467.4l177.5,4Z" transform="translate(28.633 -21.746)" fill="#d4dfec"/>
    <path id="Path_36871" data-name="Path 36871" d="M663.19,485.27v168.2a4,4,0,0,1-3.85,3.95l-191.65,5.1h0a4,4,0,0,1-4-3.95V485.27a4,4,0,0,1,3.95-3.95h191.6A4,4,0,0,1,663.19,485.27Z" transform="translate(-60.459 -194.656)" fill="#65617d"/>
    <path id="Path_36872" data-name="Path 36872" d="M397.1,319.15H574.6V467.4l-177.5,4Z" transform="translate(19.01 -21.746)" fill="#d4dfec"/>
    <path id="Path_36873" data-name="Path 36873" d="M863.1,533.65v13l-151.92,1.4-1.62.03-57.74.53-1.38.02-17.55.15h-.52l-106.98.99L349.78,551.4h-.15l-44.65.42-.48.01-198.4,1.82v-15l202.51-1.33h.48l40.99-.28h.19l283.08-1.87h.29l.17-.01h.47l4.79-.03h1.46l74.49-.5,4.4-.02.98-.01Z" transform="translate(0 -21.746)" opacity="0.1"/>
    <circle id="Ellipse_30" data-name="Ellipse 30" cx="51.33" cy="51.33" r="51.33" transform="translate(455.135 210.195)" fill="#fbbebe"/>
    <path id="Path_36874" data-name="Path 36874" d="M383.74,725.09a1.241,1.241,0,0,1,.1-.35c1-3.59,2.78-9.66,4.11-14.51.17-.6.33-1.19.48-1.75,1.47-5.47,4.33-18.28,5.92-26.27.56-2.81,1-5,1.09-6.1.2-1.69,3.21-8.92,6.62-17.23,2.39-5.84,5-12.22,6.91-17.6a61.376,61.376,0,0,0,2.93-9.85,5.1,5.1,0,0,0,0-2.13,14.689,14.689,0,0,1-.48-3.5h0c-.23-6.2,1.62-16,4.48-20.11,3.5-5,6-23.66,6-23.66s5.18.75,6-3.53a6.151,6.151,0,0,0,.1-1.4,7.412,7.412,0,0,0-.09-1.11c-.89-6.24,14.72-12.88,23.5-14.31a19.657,19.657,0,0,1,3-.28,27.239,27.239,0,0,0,6.25-1.44q1.4-.43,3-1c3.68-1.24,8.08-2.88,12.75-4.68,17.56-6.81,38.82-16,38.82-16,.15-.71.32-1.39.51-2.06a27.71,27.71,0,0,1,16.35-18.93h0v-2c0-3.45-.15-7-.3-10.54,0-.69-.06-1.38-.1-2.07v-1.13c0-.7-.07-1.4-.11-2.09l-.18-.14a16.408,16.408,0,0,1-3.9-4.2,15.265,15.265,0,0,1-1.42-3c-1.25-3.39-1.54-7.17-2.38-10.75l-.18-.74a84,84,0,0,0-4-10.58c-2.21-5.42-3.91-11-5.6-16.65q-1.54-5.13-3.11-10.28l-1.58-5.24c-.3-1-.6-2-.83-3h0a13.27,13.27,0,0,1-.26-1.4h0a10,10,0,0,1,.24-4.61,32.1,32.1,0,0,1,1.32-3,7.873,7.873,0,0,0,.5-1.38h0a3.012,3.012,0,0,0,.08-.32,5.649,5.649,0,0,0,.11-1.08,18.462,18.462,0,0,0-.52-3.89.07.07,0,0,1,0-.05,2.549,2.549,0,0,0-.05-.27,25.494,25.494,0,0,1-.36-3,28.451,28.451,0,0,1,3.47-15.57l.19-.36a25.217,25.217,0,0,1,1.84-2.78h0a14.046,14.046,0,0,1,1-1.22c-1.4,1.34-3.7.75-5-.69a3.611,3.611,0,0,1-.55-.75,3.815,3.815,0,0,1-.23-.45c-.05-.12-.09-.25-.13-.38-.7-2.45.52-5.06,2.12-7.05a18.489,18.489,0,0,1,5.74-4.7h0a3.856,3.856,0,0,1,.4-.21,17.118,17.118,0,0,1,2.64-1.06h0a15.055,15.055,0,0,1,1.63-.44l-3.71-.34-1.5-.14a14.49,14.49,0,0,1,13-10.91h1.08a11.733,11.733,0,0,1,1.57.13,4.44,4.44,0,0,1-2.65-4.33,14.41,14.41,0,0,0,9.19,3.06h.38a30.006,30.006,0,0,1-.34-3.27h0a33.168,33.168,0,0,1,0-4.46,8.44,8.44,0,0,0,6.78,2.26l-2.08-2.9a9.49,9.49,0,0,0,6.56,2.05l.48-.05a7,7,0,0,0,1.19-.23h.09c-.19-.24-.36-.49-.53-.75l-.06-.12a9.672,9.672,0,0,1-1-2.09,6.6,6.6,0,0,1-.24-.87h0a8.75,8.75,0,0,1,.45-5.45c3.23,2.7,6.77,6.39,11,3.6s4.37-7.91,11-7.39a10.2,10.2,0,0,1,8.41,6.12,6.75,6.75,0,0,1,7.67-1.75,6.85,6.85,0,0,1,3.88,6.89c2.75-.69,5.71-1.37,8.35-.33s4.34,4.41,2.84,6.66a1.432,1.432,0,0,1-.14.2c-1.23,1.59-3.95,2.46-3.66,4.46l.42.3,1.3.94q7.65,5.52,14.9,11.6c2.48,2.08,5.12,4.58,5.29,7.83a8.642,8.642,0,0,1-.24,2.37h0c-.16.78-.38,1.56-.55,2.34a19.511,19.511,0,0,0-.34,6.05h0c.07.59.16,1.17.27,1.76,1.53,7.73,7.71,14.11,8.32,22v.56a17.775,17.775,0,0,1-.07,2.53c-.46,4.8-2.68,9.41-4.48,14-.11.28-.22.56-.32.84-3.47,9-5.47,18.59-7,28.16a100.249,100.249,0,0,1-2,10.09A26.73,26.73,0,0,1,611,492.07a16.218,16.218,0,0,1-3.36,3,18.671,18.671,0,0,1-2.65,1.41v.06c.11.61.2,1.22.31,1.83.06.32.11.64.17,1h0a.138.138,0,0,0,0,.06c.84,4.73,1.8,9.36,2.81,13.76l.51,2.19c12.6,4.55,14.09,13.87,14.18,17.44a9.64,9.64,0,0,1,0,1.43s19,.5,26.5,6a20.336,20.336,0,0,0,4.51,2.3,82.993,82.993,0,0,0,9.25,2.89c1.61.42,3.29.83,5,1.23,3,.69,6.18,1.36,9.25,2,8.19,1.65,15.9,3,19.81,4,9.33,2.36,30.67,22.82,30.67,22.82s2.5,20.64,5,23.65,7,13.59,7,13.59l16.54,29.41,7,12.37H768c.62,0,1.84.88,3.21,2.1,1.19,1.06,2.51,2.38,3.67,3.58l1.92,2.05,1.2,1.33s7.27.18,9.24,5.93c5.92-.17,13.19.22,18.28,2.5a14.14,14.14,0,0,1,2,1.08,8.68,8.68,0,0,1,4.13,5.66,8.352,8.352,0,0,1,.18,1.44c0,.57,0,1.14,0,1.7-.36,7.57-5.29,13.87-9.82,18.11l.32.57s-.15.36-.44,1c-.08.19-.18.4-.29.64h0c-.59,1.26-1.53,3.15-2.76,5.36a63.314,63.314,0,0,1-9.57,13.17l-.29.3-57.74.53-.17-.2L719.87,708l-5.57-6.64-.17-.21-.16,1.59-.54,5.3-1.3,12.81-.07.64v.17l-.15,1.48.11-1.48h-.29l-107,1L429.11,724.6v.84h-.14v-.84l-44.75.48Z" transform="translate(-58.812 -194.656)" fill="url(#linear-gradient)"/>
    <path id="Path_36875" data-name="Path 36875" d="M617.94,550.07s-99.5,12-90,0c3.44-4.34,4.39-17.2,4.2-31.85-.06-4.45-.22-9.06-.45-13.65-1.1-22-3.75-43.5-3.75-43.5s87-41,77-8.5c-4,13.13-2.69,31.57.35,48.88.89,5.05,1.92,10,3,14.7a344.66,344.66,0,0,0,9.65,33.92Z" transform="translate(-59.854 -186.148)" fill="#fbbebe"/>
    <path id="Path_36876" data-name="Path 36876" d="M617.94,550.07s-99.5,12-90,0c3.44-4.34,4.39-17.2,4.2-31.85,15.17-6.48,34.47-1.65,34.47-1.65,20.32-4.05,33.35-3.26,41.68-.42a344.66,344.66,0,0,0,9.65,33.92Z" transform="translate(-59.854 -187.372)" opacity="0.1"/>
    <path id="Path_36877" data-name="Path 36877" d="M429.08,725.44v-.84l175.62-1.91,107-1h.3l-.11,1.48.15-1.48h.19v-.17l1.37-13.45.52-5.09.16-1.59.14-1.33,6.18-20.61,6.18-20.58,5.2-17.33,7.94-26.48s-4.5-10.5-7-13.5-5-23.5-5-23.5-21.34-20.33-30.67-22.67c-3.91-1-11.63-2.33-19.83-4-3.07-.62-6.22-1.28-9.25-2-1.71-.39-3.39-.8-5-1.21a87.9,87.9,0,0,1-9.25-2.86,20.7,20.7,0,0,1-4.5-2.29c-7.35-5.39-25.77-6-26.48-6h0a.42.42,0,0,1,0-.07v-.09a10.246,10.246,0,0,0,0-1.26,8.03,8.03,0,0,0-.09-1.4,1.262,1.262,0,0,0-.07-.5c-.05-.36-.11-.74-.2-1.14a4.983,4.983,0,0,0-.12-.53,17.212,17.212,0,0,0-1.25-3.49c-.07-.16-.16-.33-.24-.49a18.249,18.249,0,0,0-1.7-2.63c-.13-.17-.27-.35-.42-.52a19.577,19.577,0,0,0-2.72-2.64c-.27-.21-.55-.43-.84-.63a4.668,4.668,0,0,0-.51-.36l-.89-.58-.83-.48c-.73-.4-1.5-.79-2.34-1.16-.26-.12-.54-.23-.82-.34s-.72-.28-1.09-.42h-.06L608,518c-.57-.19-1.15-.36-1.76-.53l-.93-.24-1-.23-1-.21c-1-.2-2.07-.38-3.19-.52l-1.14-.14-1.17-.12-1.21-.1-1.72-.1-2-.07a124.707,124.707,0,0,0-26.251,2.792,72.268,72.268,0,0,0-18.249-1.682h-.87l-1,.06h-.64l-1.29.12a9.588,9.588,0,0,0-1.3.15c-.43.06-.88.11-1.31.18l-.66.11c-.65.11-1.31.23-2,.37q-.33.06-.66.15c-.87.19-1.74.42-2.6.68-.43.12-.86.26-1.29.41-.22.06-.43.14-.64.22l-.64.23-.63.25-.75.3c-.38.16-.75.33-1.12.51-.21.09-.42.19-.62.3s-.41.2-.6.31a27.75,27.75,0,0,0-6.21,4.38l-.51.49-.5.51c-.17.17-.33.35-.49.53a23.82,23.82,0,0,0-1.82,2.25c-.16.21-.31.42-.46.64a26.688,26.688,0,0,0-1.72,2.92c-.13.24-.25.49-.37.73a32.7,32.7,0,0,0-2,5.25q-.28,1-.51,2S494,550.24,476.44,557c-4.67,1.8-9.07,3.43-12.75,4.66-1.07.36-2.07.69-3,1a26.7,26.7,0,0,1-6.25,1.44,19.665,19.665,0,0,0-3,.28c-8.07,1.31-21.9,7-23.41,12.71a3.69,3.69,0,0,0-.1,1.4s0,.07,0,.11c1,7-6,6-6,6s-2.5,18.5-6,23.5c-2.53,3.6-4.26,11.63-4.48,17.69h0a19.609,19.609,0,0,0,.44,5.63v.14c.4,1.34-.56,5-2.19,9.69-1.77,5.15-4.35,11.55-6.83,17.59-3.74,9.12-7.26,17.4-7.48,19.22-.09.81-.35,2.26-.71,4.13-1.46,7.62-4.7,22.13-6.3,28-1.19,4.38-2.92,10.38-4.11,14.5a1.4,1.4,0,0,1-.1.35L429,724.6v.84h.14Z" transform="translate(-60.953 -194.656)" fill="#ff4900"/>
    <path id="Path_36878" data-name="Path 36878" d="M445.44,607.57s57,29.5,77.5,26Z" transform="translate(-63.632 -190.816)" opacity="0.1"/>
    <path id="Path_36879" data-name="Path 36879" d="M561.44,595.57s55.5,18,74,20.5S561.44,595.57,561.44,595.57Z" transform="translate(-58.678 -190.138)" opacity="0.1"/>
    <path id="Path_36880" data-name="Path 36880" d="M623,537.65c-29,5.34-83.6,4.19-107.2,3.38,8.65-31,50.83-20.46,50.83-20.46C618.84,510.15,622.84,531.77,623,537.65Z" transform="translate(-60.018 -187.054)" opacity="0.1"/>
    <path id="Path_36881" data-name="Path 36881" d="M623,535.65c-29,5.34-83.6,4.19-107.2,3.38,8.65-31,50.83-20.46,50.83-20.46C618.84,508.15,622.84,529.77,623,535.65Z" transform="translate(-60.018 -186.972)" fill="#ff4900"/>
    <path id="Path_36882" data-name="Path 36882" d="M776.94,672.32s34.16-5.25,34.83,9.75-17.42,25.48-17.42,25.48Z" transform="translate(-50.677 -194.656)" fill="#fbbebe"/>
    <path id="Path_36883" data-name="Path 36883" d="M605.29,501.45a47.022,47.022,0,0,1-4.5,1.74c-10.78,3.72-21.65,7.47-33,8.83s-23.26.16-33.16-5.5a28.764,28.764,0,0,1-3-1.95c-1.1-22-3.75-43.5-3.75-43.5s87-41,77-8.5C600.9,465.7,602.25,484.14,605.29,501.45Z" transform="translate(-60.089 -184.969)" opacity="0.1"/>
    <path id="Path_36884" data-name="Path 36884" d="M552.52,364.84a9.47,9.47,0,0,1-8.32-1.75l2.08,2.89a8.47,8.47,0,0,1-6.78-2.25,34.082,34.082,0,0,0,.32,7.75,14.52,14.52,0,0,1-9.56-3,4.42,4.42,0,0,0,2.64,4.31,14.34,14.34,0,0,0-15.6,10.71l5.22.48a18.469,18.469,0,0,0-10.44,6.37c-1.6,2-2.82,4.56-2.12,7s4.08,4,5.92,2.26a27.94,27.94,0,0,0-6.1,22.79,14.469,14.469,0,0,1,.46,5.26c-.33,1.65-1.37,3.08-1.89,4.69-1,2.92-.05,6.09.84,9l4.69,15.42c1.7,5.57,3.39,11.15,5.61,16.54a82.084,82.084,0,0,1,4,10.51c1.26,4.84,1.31,10.14,4,14.37a19.93,19.93,0,0,0,7.18,6.33c9.89,5.66,21.84,6.86,33.16,5.5s22.18-5.11,32.95-8.83a31,31,0,0,0,6.84-3c7.45-4.88,9.11-14.86,10.5-23.65,1.55-9.8,3.62-19.58,7.29-28.8,2.18-5.49,5-11.06,4.52-16.94-.61-7.81-6.79-14.14-8.32-21.82a19,19,0,0,1,.07-7.77,17.66,17.66,0,0,0,.79-4.7c-.17-3.22-2.81-5.7-5.29-7.77Q609.11,380,600.52,374c-.29-2,2.43-2.86,3.66-4.44,1.74-2.23-.06-5.77-2.7-6.81s-5.6-.36-8.35.33a6.59,6.59,0,0,0-11.55-5.11,10.2,10.2,0,0,0-8.42-6.08c-6.63-.52-6.76,4.55-11,7.34s-7.74-.89-11-3.57A9.28,9.28,0,0,0,552.52,364.84Z" transform="translate(-60.06 -182.748)" fill="#3f3d56"/>
    <path id="Path_36885" data-name="Path 36885" d="M802.27,702.32s-.89,2.12-2.53,5.19a69,69,0,0,1-9,13.17l-.27.29h-1.62l-57.74.53h-1.38l-.17-.2-11.2-13.29L714.14,703l-.17-.21-.36-.42-.2-.24-.26-.31-8.21-9.74,3-12.5,5.11-21.06.13-.51,1-4,.71-3,2.38-9.78,8.16-33.65,14.5,7.5,15.29,27,8.21,14.5h4.5c.85,0,2.8,1.64,4.76,3.53.7.67,1.4,1.38,2,2,1.78,1.84,3.19,3.42,3.19,3.42s7.29.16,9.25,5.9a6.992,6.992,0,0,1,.25.85,40.3,40.3,0,0,0,2.53,6.56c1.29,2.81,2.91,6,4.55,9.19,3.05,5.85,6.15,11.42,7.29,13.44l.14.25Z" transform="translate(-51.934 -194.656)" fill="#ff4900"/>
    <path id="Path_36886" data-name="Path 36886" d="M716.37,657.17l-.1,1.43v.1l-.17,2.3-1.33,18.51-1.61,22.3-.46,6.28-1,13.44v.17l-107,1-175.59,1.9v.84h-.14v-1.12l.45-14.36.86-28.06.74-23.79.07-2.37a10.53,10.53,0,0,1,11.42-10.17c4.72.4,10.85.89,18.18,1.41l3,.22c42.33,2.94,120.56,6.74,199.5,2,1.66-.09,3.33-.19,5-.31,12.24-.77,24.47-1.76,36.58-3a10.53,10.53,0,0,1,11.6,11.23Z" transform="translate(-60.162 -194.656)" opacity="0.1"/>
    <path id="Path_36887" data-name="Path 36887" d="M429.08,725.44v-.84l175.62-1.91,107-1h.3v-.17l1-13.44.43-6,1.64-22.61,1.29-17.9v-.44a10.617,10.617,0,0,0-.11-2.47.3.3,0,0,0,0-.1,10.391,10.391,0,0,0-2-4.64,10.54,10.54,0,0,0-9.42-4c-12.11,1.24-24.34,2.23-36.58,3-1.67.12-3.34.22-5,.31-78.94,4.69-157.17.89-199.5-2l-3-.22c-7.33-.52-13.46-1-18.18-1.41a10.54,10.54,0,0,0-11.24,8.53,11,11,0,0,0-.18,1.64l-.68,22.16L429.54,710l-.44,14.36v1.12Z" transform="translate(-60.159 -194.656)" fill="#3f3d56"/>
    <path id="Path_36888" data-name="Path 36888" d="M716.67,664.18l-1.23,15.33-1.83,22.85-.46,5.72-1,12.81-.06.64v.17h0l-.15,1.48.11-1.48h-.29l-107,1-175.65,1.9v-.28l.49-14.36,1-28.06.64-18.65A6.36,6.36,0,0,1,434.3,658a6.25,6.25,0,0,1,3.78-.9c2.1.17,4.68.37,7.69.59,4.89.36,10.92.78,17.94,1.22,13,.82,29.31,1.7,48,2.42,52,2,122.2,2.67,188.88-3.17,3-.26,6.1-.55,9.13-.84a6.26,6.26,0,0,1,3.48.66,5.159,5.159,0,0,1,.86.54,6.14,6.14,0,0,1,2,2.46,3.564,3.564,0,0,1,.25.61A6.279,6.279,0,0,1,716.67,664.18Z" transform="translate(-60.15 -194.656)" opacity="0.1"/>
    <path id="Path_36889" data-name="Path 36889" d="M377.44,677.87v3.19a6.13,6.13,0,0,1-3.5,5.54l-40.1.77a6.12,6.12,0,0,1-3.57-5.57v-3Z" transform="translate(-68.902 -194.656)" opacity="0.1"/>
    <path id="Path_36890" data-name="Path 36890" d="M298.6,515.57l-52.25,1V507.9l52.25-1Z" transform="translate(10.3 -21.746)" fill="#3f3d56"/>
    <path id="Path_36891" data-name="Path 36891" d="M298.6,515.57l-52.25,1V507.9l52.25-1Z" transform="translate(10.3 -21.746)" opacity="0.1"/>
    <path id="Path_36892" data-name="Path 36892" d="M300.6,515.57l-52.25,1V507.9l52.25-1Z" transform="translate(10.383 -21.746)" fill="#3f3d56"/>
    <g id="Group_34856" data-name="Group 34856" transform="translate(448.283 174.32)" opacity="0.1">
      <path id="Path_36893" data-name="Path 36893" d="M552.93,361.56a9.751,9.751,0,0,1-1.89-4.34,9.49,9.49,0,0,0,.42,4.6A9,9,0,0,0,552.93,361.56Z" transform="translate(-508.324 -357.22)"/>
      <path id="Path_36894" data-name="Path 36894" d="M540.23,368.2a35.152,35.152,0,0,1-.37-3.7c0,1.23,0,2.47,0,3.71Z" transform="translate(-508.324 -357.22)"/>
      <path id="Path_36895" data-name="Path 36895" d="M621.73,401.57a18.332,18.332,0,0,1,.36-2.65,18,18,0,0,0,.8-4.69,6.162,6.162,0,0,0-.16-1.06c-.17.92-.44,1.84-.64,2.75a19.139,19.139,0,0,0-.36,5.65Z" transform="translate(-508.324 -357.22)"/>
      <path id="Path_36896" data-name="Path 36896" d="M600.93,370.67l1.09.79a19.707,19.707,0,0,0,2.57-2.22,3.67,3.67,0,0,0,.38-3.64,3,3,0,0,1-.38.64C603.36,367.82,600.64,368.69,600.93,370.67Z" transform="translate(-508.324 -357.22)"/>
      <path id="Path_36897" data-name="Path 36897" d="M518.76,380.29a12.317,12.317,0,0,0-.87,2.28,18.161,18.161,0,0,1,5-1.89Z" transform="translate(-508.324 -357.22)"/>
      <path id="Path_36898" data-name="Path 36898" d="M532.55,369.41a14.832,14.832,0,0,1-1.88-1.23,4.249,4.249,0,0,0,.09,1.18,11.861,11.861,0,0,1,1.79.05Z" transform="translate(-508.324 -357.22)"/>
      <path id="Path_36899" data-name="Path 36899" d="M630.32,428.33c-.41,4.85-2.67,9.52-4.5,14.12-3.67,9.22-5.74,19-7.29,28.81-1.39,8.79-3,18.77-10.5,23.64a30,30,0,0,1-6.83,3c-10.78,3.73-21.65,7.47-33,8.83s-23.26.17-33.16-5.49a20,20,0,0,1-7.18-6.33c-2.67-4.23-2.72-9.53-4-14.37a82.216,82.216,0,0,0-4-10.52c-2.21-5.38-3.91-11-5.6-16.53q-2.35-7.71-4.69-15.43a28.811,28.811,0,0,1-1.14-4.75c-.39,2.56.37,5.24,1.14,7.75q2.34,7.73,4.69,15.43c1.69,5.57,3.39,11.15,5.6,16.53a82.21,82.21,0,0,1,4,10.52c1.26,4.84,1.31,10.14,4,14.37a20,20,0,0,0,7.18,6.33c9.9,5.66,21.84,6.85,33.16,5.49s22.18-5.1,33-8.83a30,30,0,0,0,6.83-3c7.45-4.87,9.11-14.85,10.5-23.64,1.55-9.81,3.62-19.59,7.29-28.81,2.18-5.48,5-11.05,4.52-16.94C630.34,428.45,630.32,428.39,630.32,428.33Z" transform="translate(-508.324 -357.22)"/>
      <path id="Path_36900" data-name="Path 36900" d="M510.63,424.46v-.11a14,14,0,0,0-.46-5.25,26.592,26.592,0,0,1-.39-3.32,27.352,27.352,0,0,0,.39,6.32C510.33,422.88,510.51,423.67,510.63,424.46Z" transform="translate(-508.324 -357.22)"/>
      <path id="Path_36901" data-name="Path 36901" d="M513.68,400a27.741,27.741,0,0,1,2.61-3.67c-1.83,1.75-5.21.19-5.92-2.24a5.831,5.831,0,0,0,0,3,4.39,4.39,0,0,0,3.31,2.91Z" transform="translate(-508.324 -357.22)"/>
    </g>
    <path id="Path_36902" data-name="Path 36902" d="M763.44,656.57s3.17,11.5,0,21.5S763.44,656.57,763.44,656.57Z" transform="translate(-52.155 -194.656)" opacity="0.1"/>
    <path id="Path_36903" data-name="Path 36903" d="M776.94,668.3s1.33,14.6-1.67,17.19S776.94,668.3,776.94,668.3Z" transform="translate(-51.664 -194.656)" opacity="0.1"/>
    <line id="Line_39" data-name="Line 39" y1="1" x2="101.61" transform="translate(207.747 328.421)" fill="none" stroke="#ff4900" stroke-miterlimit="10" stroke-width="2"/>
    <line id="Line_40" data-name="Line 40" y1="0.99" x2="101.61" transform="translate(207.747 340.411)" fill="none" stroke="#ff4900" stroke-miterlimit="10" stroke-width="2"/>
    <line id="Line_41" data-name="Line 41" y1="1" x2="101.61" transform="translate(207.747 352.391)" fill="none" stroke="#ff4900" stroke-miterlimit="10" stroke-width="2"/>
  </g>
</svg>
