<svg xmlns="http://www.w3.org/2000/svg" width="61" height="106" viewBox="0 0 61 106">
  <g id="Rectangle_131" data-name="Rectangle 131" fill="none" stroke="#ff4900" stroke-width="2">
    <rect width="61" height="106" rx="30.5" stroke="none"/>
    <rect x="1" y="1" width="59" height="104" rx="29.5" fill="none"/>
  </g>
  <g id="arrow-long" transform="translate(80.25 52) rotate(90)">
    <path id="Path_113" data-name="Path 113" d="M21.979,48.851,15.348,42.22a1.036,1.036,0,1,0-1.465,1.465l4.862,4.862H-18.964A1.036,1.036,0,0,0-20,49.583a1.036,1.036,0,0,0,1.036,1.036H18.745l-4.862,4.862a1.036,1.036,0,0,0,1.465,1.465l6.631-6.631A1.036,1.036,0,0,0,21.979,48.851Z" fill="#ff4900"/>
  </g>
</svg>
