<svg xmlns="http://www.w3.org/2000/svg" width="400" height="400" enable-background="new 0 0 400 400" viewBox="0 0 400 400"><path fill="#FFFFFF" d="M308.576,149.339c-0.008-1.723-0.744-3.364-2.03-4.508c-1.293-1.145-3.021-1.679-4.721-1.481
						L96.593,167.515c-3.038,0.357-5.333,2.938-5.333,6v54.37c0,23.843,68.352,30.207,108.74,30.207
						c40.386,0,108.74-6.364,108.74-30.207c0,0,0-0.009,0-0.012L308.576,149.339z"/><path fill="#FFFFFF" d="M308.576,167.474H199.834v90.616c0.056,0,0.111,0.001,0.166,0.001
						c39.332,0,105.155-6.042,108.576-28.377V167.474z"/><path fill="#FFFFFF" d="M380.066,115.983L225.469,62.977c-16.425-5.634-34.513-5.634-50.938,0L19.939,115.983
						c-7.438,2.548-12.254,9.276-12.254,17.144c0,7.864,4.815,14.593,12.254,17.141l154.593,53.004
						c8.213,2.816,16.836,4.225,25.469,4.225c8.631,0,17.257-1.407,25.468-4.225l154.599-53.004
						c7.44-2.548,12.248-9.276,12.248-17.141C392.314,125.259,387.506,118.531,380.066,115.983z"/><path fill="#FFFFFF" d="M314.616,264.132c-3.339,0-6.04-2.705-6.04-6.041v-78.936c0-2.582-1.641-4.88-4.082-5.717
							l-106.618-36.553c-3.155-1.083-4.838-4.517-3.759-7.674c1.086-3.156,4.514-4.845,7.676-3.754l106.617,36.555
							c7.327,2.512,12.248,9.399,12.248,17.144v78.936C320.658,261.427,317.956,264.132,314.616,264.132z"/><path fill="#FFFFFF" d="M320.658,306.421h-12.082c-3.338,0-6.041-2.705-6.041-6.042v-36.247
						c0-6.673,5.408-12.083,12.081-12.083l0,0c6.675,0,12.082,5.41,12.082,12.083v36.247
						C326.698,303.716,323.994,306.421,320.658,306.421z"/><path fill="#FFFFFF" d="M308.576,214.519c0.042-0.026,0.094-0.05,0.136-0.076l-0.035-16.535
							c-0.007,0.094-0.085,0.201-0.101,0.294V214.519z"/><ellipse cx="200" cy="131.227" fill="#FFFFFF" rx="24.164" ry="12.082"/></svg>